<svg xmlns="http://www.w3.org/2000/svg" viewBox="0 0 64 64" fill="none">
  <defs>
    <linearGradient id="bg" x1="0%" y1="0%" x2="100%" y2="100%">
      <stop offset="0%" style="stop-color:#7C3AED"/>
      <stop offset="100%" style="stop-color:#06B6D4"/>
    </linearGradient>
  </defs>
  <rect width="64" height="64" rx="14" fill="url(#bg)"/>
  <g transform="translate(8, 6)">
    <rect x="4" y="20" width="40" height="30" rx="5" fill="white" opacity="0.95"/>
    <path d="M14 20 V15 C14 8 18 5 24 5 C30 5 34 8 34 15 V20" stroke="white" stroke-width="3.5" fill="none" stroke-linecap="round"/>
    <path d="M24 27 L25.5 32 L30 33.5 L25.5 35 L24 40 L22.5 35 L18 33.5 L22.5 32 Z" fill="url(#bg)"/>
    <path d="M35 24 L35.8 26.5 L38 27 L35.8 27.5 L35 30 L34.2 27.5 L32 27 L34.2 26.5 Z" fill="url(#bg)" opacity="0.6"/>
  </g>
</svg>
